<mxfile host="65bd71144e">
    <diagram id="oAhtXoeJJQtdEXDMf4JZ" name="Page-1">
        <mxGraphModel dx="350" dy="330" grid="1" gridSize="10" guides="1" tooltips="1" connect="1" arrows="1" fold="1" page="1" pageScale="1" pageWidth="827" pageHeight="1169" math="0" shadow="0">
            <root>
                <mxCell id="0"/>
                <mxCell id="1" parent="0"/>
                <mxCell id="2" value="&lt;font style=&quot;font-size: 42px&quot; face=&quot;Tahoma&quot;&gt;FiveAM&lt;font color=&quot;#808080&quot;&gt;.dev&lt;/font&gt;&lt;/font&gt;" style="text;html=1;strokeColor=none;fillColor=none;align=center;verticalAlign=middle;whiteSpace=wrap;rounded=0;fontFamily=League Gothic;fontSource=https%3A%2F%2Ffonts.googleapis.com%2Fcss%3Ffamily%3DLeague%2BGothic;" parent="1" vertex="1">
                    <mxGeometry x="250" y="400" width="300" height="70" as="geometry"/>
                </mxCell>
            </root>
        </mxGraphModel>
    </diagram>
</mxfile>